<svg width="16" height="16" viewBox="0 0 16 16" fill="none" xmlns="http://www.w3.org/2000/svg">
<g clip-path="url(#clip0_102_69)">
<path d="M4 0.8L12 0.8L16 7.7282L12 14.6564H4L0 7.7282L4 0.8Z" fill="#E5D524"/>
<path d="M11.6989 5.9234C11.4236 5.10638 10.8731 4.5617 10.0473 4.22128V3.2H9.35909V4.15319H9.08382C8.32683 4.15319 7.70748 4.42553 7.15694 4.97021L6.88167 5.24255L5.91823 4.90213C5.71178 4.83404 5.50533 4.76596 5.23006 4.76596C4.81716 4.76596 4.40425 4.90213 4.06017 5.17447C3.64726 5.44681 3.44081 5.78723 3.30318 6.12766C3.16554 6.60426 3.16554 7.01277 3.30318 7.48936C3.50963 7.96596 3.71608 8.30638 4.06017 8.51064C3.7849 9.53192 3.99135 10.417 4.74834 11.166C5.29888 11.7106 5.91823 11.983 6.67522 11.983C7.01931 11.983 7.22576 11.983 7.43221 11.9149C7.84511 12.4596 8.39565 12.8 9.08382 12.8C9.29027 12.8 9.56554 12.8 9.77199 12.7319C10.1849 12.5957 10.4602 12.3234 10.7354 11.983C11.0107 11.5745 11.1483 11.234 11.1483 10.8255C11.1483 10.5532 11.1483 10.3489 11.0795 10.1447L10.7354 9.05532L11.1483 8.78298C11.6989 8.2383 11.9741 7.48936 11.9053 6.67234H12.8V5.9234H11.6989ZM5.02361 7.48936C4.6107 7.28511 4.47307 7.01277 4.6107 6.60426C4.74834 6.19574 5.02361 6.05957 5.43651 6.19574L7.63866 7.01277C6.53759 7.55745 5.71178 7.69362 5.02361 7.48936ZM9.35909 11.3021C8.94619 11.4383 8.67092 11.3021 8.46447 10.8936C8.25802 10.2128 8.39565 9.39575 8.94619 8.30638L9.77199 10.417C9.90963 10.8936 9.77199 11.166 9.35909 11.3021ZM10.1849 7.69362L9.77199 6.60426V6.53617L9.56554 6.33192H9.49673L8.39565 5.9234C8.67092 5.71915 8.94619 5.58298 9.29027 5.58298C9.63436 5.58298 9.97845 5.71915 10.2537 5.99149C10.529 6.26383 10.6666 6.53617 10.6666 6.8766C10.529 7.08085 10.3913 7.42128 10.1849 7.69362Z" fill="#201E04"/>
</g>
<defs>
<clipPath id="clip0_102_69">
<rect width="16" height="16" fill="white"/>
</clipPath>
</defs>
</svg>
