<svg width="16" height="16" viewBox="0 0 16 16" fill="none" xmlns="http://www.w3.org/2000/svg">
<g clip-path="url(#clip0_102_69)">
<path fill-rule="evenodd" clip-rule="evenodd" d="M12 1.072H4L0 8.0002L4 14.9284H12L16 8.0002L12 1.072Z" fill="url(#paint0_linear_102_69)"/>
<path fill-rule="evenodd" clip-rule="evenodd" d="M4.46188 1.872L0.92376 8.0002L4.46188 14.1284H11.5381L15.0762 8.0002L11.5381 1.872L4.46188 1.872ZM12 1.072H4L0 8.0002L4 14.9284H12L16 8.0002L12 1.072Z" fill="#E5D524"/>
<path fill-rule="evenodd" clip-rule="evenodd" d="M2.8 11.0021L7.99982 14.0042L13.1996 11.0021L13.1996 4.99788L7.99982 1.99576L2.8 4.99788L2.8 11.0021ZM2 4.536V11.464L7.99982 14.928L13.9996 11.464L13.9996 4.536L7.99982 1.072L2 4.536Z" fill="#E5D524"/>
<path fill-rule="evenodd" clip-rule="evenodd" d="M10.2059 9.28711C10.1732 9.57353 10.0819 9.85069 9.9373 10.1023C9.79271 10.3539 9.5978 10.5748 9.36402 10.7521C9.23474 11.052 9.00532 11.3009 8.71275 11.4586C8.67177 11.6135 8.57894 11.7508 8.44888 11.8488C8.31883 11.9468 8.15892 12 7.99435 12C7.82977 12 7.66987 11.9468 7.53981 11.8488C7.40975 11.7508 7.31693 11.6135 7.27594 11.4586C6.98337 11.3009 6.75396 11.052 6.62467 10.7521C6.39168 10.5755 6.19725 10.3555 6.05276 10.105C5.90826 9.85453 5.8166 9.57856 5.78313 9.29324C5.56501 9.45309 5.294 9.5294 5.02174 9.50762C4.74947 9.48584 4.49495 9.3675 4.30664 9.17514C4.11834 8.98277 4.0094 8.72981 4.00058 8.46443C3.99176 8.19905 4.08366 7.93978 4.2588 7.736L5.7772 5.97763C5.82482 5.43909 6.07819 4.93739 6.48742 4.57136C6.89664 4.20534 7.43205 4.0015 7.98819 4.00001C8.54433 3.99852 9.08089 4.19947 9.49219 4.5633C9.90348 4.92713 10.1597 5.42746 10.2104 5.96573L11.7384 7.73564C11.9154 7.93989 12.0084 8.20055 11.9994 8.46742C11.9905 8.7343 11.8803 8.98853 11.69 9.18115C11.4997 9.37377 11.2429 9.49116 10.9689 9.51072C10.6949 9.53029 10.4231 9.45064 10.2059 9.28711ZM9.34325 8.32645L8.72091 7.60551H7.27669L6.65434 8.32645H9.34325ZM10.2197 8.21975L10.6024 8.66277C10.6337 8.69903 10.6721 8.72894 10.7153 8.7508C10.7585 8.77265 10.8057 8.78602 10.8542 8.79013C10.9028 8.79425 10.9517 8.78904 10.9981 8.77479C11.0446 8.76055 11.0877 8.73755 11.125 8.70711C11.1623 8.67667 11.1931 8.63939 11.2156 8.59739C11.238 8.5554 11.2518 8.50951 11.256 8.46234C11.2603 8.41518 11.2549 8.36767 11.2402 8.32252C11.2256 8.27737 11.2019 8.23547 11.1706 8.19921L10.2197 7.09797V8.21975ZM9.47789 6.88457V6.16363C9.47789 5.78122 9.32158 5.41447 9.04337 5.14407C8.76515 4.87366 8.38781 4.72175 7.99435 4.72175C7.60089 4.72175 7.22354 4.87366 6.94533 5.14407C6.66711 5.41447 6.51081 5.78122 6.51081 6.16363V6.88457H9.47789ZM5.39519 8.66277L5.76867 8.23021V7.10842L4.82662 8.19957C4.76342 8.27285 4.73276 8.36753 4.74139 8.46278C4.75001 8.55803 4.79722 8.64605 4.87261 8.70747C4.94801 8.7689 5.04542 8.7987 5.14343 8.79031C5.24143 8.78193 5.33199 8.73605 5.39519 8.66277ZM7.99398 10.4893C7.60052 10.4893 7.22317 10.3374 6.94496 10.067C6.66674 9.79655 6.51044 9.42981 6.51044 9.0474H9.47751C9.47751 9.42981 9.32121 9.79655 9.043 10.067C8.76478 10.3374 8.38744 10.4893 7.99398 10.4893Z" fill="white"/>
</g>
<defs>
<linearGradient id="paint0_linear_102_69" x1="-1.10597e-07" y1="1.2" x2="16" y2="14.8" gradientUnits="userSpaceOnUse">
<stop stop-color="#403B07"/>
<stop offset="1" stop-color="#121102"/>
</linearGradient>
<clipPath id="clip0_102_69">
<rect width="16" height="16" fill="white"/>
</clipPath>
</defs>
</svg>
