<svg width="185" height="120" viewBox="0 0 185 120" fill="none" xmlns="http://www.w3.org/2000/svg">
<g clip-path="url(#clip0_2009_98)">
<path fill-rule="evenodd" clip-rule="evenodd" d="M108.5 4.28799H76.5L60.5 32.0008L76.5 59.7136H108.5L124.5 32.0008L108.5 4.28799Z" fill="url(#paint0_linear_2009_98)"/>
<path fill-rule="evenodd" clip-rule="evenodd" d="M78.3475 7.48799L64.195 32.0008L78.3475 56.5136H106.652L120.805 32.0008L106.652 7.48799L78.3475 7.48799ZM108.5 4.28799H76.5L60.5 32.0008L76.5 59.7136H108.5L124.5 32.0008L108.5 4.28799Z" fill="#E5D524"/>
<path fill-rule="evenodd" clip-rule="evenodd" d="M71.7 44.0085L92.4993 56.0169L113.299 44.0085L113.299 19.9915L92.4993 7.98304L71.7 19.9915L71.7 44.0085ZM68.5 18.144V45.856L92.4993 59.712L116.499 45.856L116.499 18.144L92.4993 4.28799L68.5 18.144Z" fill="#E5D524"/>
<path fill-rule="evenodd" clip-rule="evenodd" d="M101.324 37.1484C101.193 38.2941 100.828 39.4028 100.249 40.4091C99.6709 41.4155 98.8912 42.2992 97.9561 43.0082C97.4389 44.2079 96.5213 45.2034 95.351 45.8343C95.1871 46.454 94.8158 47.0031 94.2955 47.3952C93.7753 47.7872 93.1357 48 92.4774 48C91.8191 48 91.1795 47.7872 90.6592 47.3952C90.139 47.0031 89.7677 46.454 89.6038 45.8343C88.4335 45.2034 87.5158 44.2079 86.9987 43.0082C86.0667 42.3019 85.289 41.422 84.711 40.42C84.1331 39.4181 83.7664 38.3142 83.6325 37.1729C82.76 37.8124 81.676 38.1176 80.5869 38.0305C79.4979 37.9434 78.4798 37.47 77.7266 36.7005C76.9734 35.9311 76.5376 34.9192 76.5023 33.8577C76.467 32.7962 76.8347 31.7591 77.5352 30.944L83.6088 23.9105C83.7993 21.7563 84.8128 19.7496 86.4497 18.2855C88.0866 16.8213 90.2282 16.006 92.4528 16C94.6773 15.9941 96.8236 16.7979 98.4687 18.2532C100.114 19.7085 101.139 21.7098 101.342 23.8629L107.454 30.9426C108.162 31.7596 108.533 32.8022 108.498 33.8697C108.462 34.9372 108.021 35.9541 107.26 36.7246C106.499 37.4951 105.471 37.9646 104.375 38.0429C103.279 38.1212 102.192 37.8025 101.324 37.1484ZM97.873 33.3058L95.3836 30.4221H89.6067L87.1174 33.3058H97.873ZM101.379 32.879L102.91 34.6511C103.035 34.7961 103.188 34.9158 103.361 35.0032C103.534 35.0906 103.723 35.1441 103.917 35.1605C104.111 35.177 104.307 35.1561 104.492 35.0992C104.678 35.0422 104.851 34.9502 105 34.8284C105.149 34.7067 105.272 34.5576 105.362 34.3896C105.452 34.2216 105.507 34.038 105.524 33.8494C105.541 33.6607 105.52 33.4707 105.461 33.2901C105.402 33.1095 105.308 32.9419 105.182 32.7968L101.379 28.3919V32.879ZM98.4115 27.5383V24.6545C98.4115 23.1249 97.7863 21.6579 96.6735 20.5763C95.5606 19.4946 94.0512 18.887 92.4774 18.887C90.9036 18.887 89.3942 19.4946 88.2813 20.5763C87.1684 21.6579 86.5432 23.1249 86.5432 24.6545V27.5383H98.4115ZM82.0808 34.6511L83.5747 32.9208V28.4337L79.8065 32.7983C79.5537 33.0914 79.4311 33.4701 79.4656 33.8511C79.5001 34.2321 79.6889 34.5842 79.9905 34.8299C80.292 35.0756 80.6817 35.1948 81.0737 35.1613C81.4657 35.1277 81.828 34.9442 82.0808 34.6511ZM92.4759 41.9571C90.9021 41.9571 89.3927 41.3495 88.2798 40.2678C87.167 39.1862 86.5418 37.7192 86.5418 36.1896H98.4101C98.4101 37.7192 97.7849 39.1862 96.672 40.2678C95.5591 41.3495 94.0497 41.9571 92.4759 41.9571Z" fill="white"/>
</g>
<path d="M15.4353 88.28C15.5153 88.0933 15.662 88 15.8753 88H17.2353C17.502 88 17.6353 88.1333 17.6353 88.4V115.6C17.6353 115.867 17.502 116 17.2353 116H15.9153C15.6486 116 15.5153 115.867 15.5153 115.6V92.92C15.5153 92.84 15.4886 92.8 15.4353 92.8C15.382 92.8 15.342 92.8267 15.3153 92.88L10.9153 102.64C10.8353 102.853 10.702 102.96 10.5153 102.96C10.302 102.96 10.1553 102.867 10.0753 102.68L5.63531 92.96C5.58198 92.9067 5.52865 92.88 5.47531 92.88C5.44865 92.88 5.43531 92.92 5.43531 93V115.6C5.43531 115.867 5.30198 116 5.03531 116H3.71531C3.44865 116 3.31531 115.867 3.31531 115.6V88.4C3.31531 88.1333 3.44865 88 3.71531 88H5.07531C5.28865 88 5.43531 88.0933 5.51531 88.28L10.3953 98.76C10.422 98.8133 10.462 98.84 10.5153 98.84C10.5686 98.84 10.6086 98.8133 10.6353 98.76L15.4353 88.28ZM36.0622 89.48C36.0622 89.7467 35.9289 89.88 35.6622 89.88H26.1822C26.0755 89.88 26.0222 89.9333 26.0222 90.04V100.88C26.0222 100.987 26.0755 101.04 26.1822 101.04H32.2622C32.5289 101.04 32.6622 101.173 32.6622 101.44V102.52C32.6622 102.787 32.5289 102.92 32.2622 102.92H26.1822C26.0755 102.92 26.0222 102.973 26.0222 103.08V113.96C26.0222 114.067 26.0755 114.12 26.1822 114.12H35.6622C35.9289 114.12 36.0622 114.253 36.0622 114.52V115.6C36.0622 115.867 35.9289 116 35.6622 116H24.3022C24.0355 116 23.9022 115.867 23.9022 115.6V88.4C23.9022 88.1333 24.0355 88 24.3022 88H35.6622C35.9289 88 36.0622 88.1333 36.0622 88.4V89.48ZM52.3072 116C52.0672 116 51.9205 115.88 51.8672 115.64L50.7872 110.4C50.7872 110.347 50.7605 110.307 50.7072 110.28C50.6805 110.253 50.6405 110.24 50.5872 110.24H42.7472C42.6939 110.24 42.6405 110.253 42.5872 110.28C42.5605 110.307 42.5472 110.347 42.5472 110.4L41.4672 115.64C41.4405 115.88 41.2939 116 41.0272 116H39.7072C39.5739 116 39.4672 115.96 39.3872 115.88C39.3339 115.8 39.3205 115.693 39.3472 115.56L45.4272 88.36C45.4805 88.12 45.6272 88 45.8672 88H47.4672C47.7339 88 47.8805 88.12 47.9072 88.36L54.0272 115.56V115.64C54.0272 115.88 53.9072 116 53.6672 116H52.3072ZM42.9872 108.32C42.9872 108.427 43.0272 108.48 43.1072 108.48H50.1872C50.2672 108.48 50.3072 108.427 50.3072 108.32L46.7472 91.4C46.7205 91.32 46.6939 91.28 46.6672 91.28C46.6405 91.28 46.6139 91.32 46.5872 91.4L42.9872 108.32ZM58.0522 116C57.7855 116 57.6522 115.867 57.6522 115.6V88.4C57.6522 88.1333 57.7855 88 58.0522 88H63.9322C65.9055 88 67.4655 88.6667 68.6122 90C69.7589 91.3067 70.3322 93.0933 70.3322 95.36V108.64C70.3322 110.907 69.7589 112.707 68.6122 114.04C67.4655 115.347 65.9055 116 63.9322 116H58.0522ZM59.7722 113.96C59.7722 114.067 59.8255 114.12 59.9322 114.12H63.9322C65.2389 114.093 66.2655 113.6 67.0122 112.64C67.7855 111.653 68.1722 110.307 68.1722 108.6V95.44C68.1722 93.7067 67.7855 92.3467 67.0122 91.36C66.2655 90.3733 65.2255 89.88 63.8922 89.88H59.9322C59.8255 89.88 59.7722 89.9333 59.7722 90.04V113.96ZM84.5756 116C84.309 116 84.1756 115.867 84.1756 115.6V88.4C84.1756 88.1333 84.309 88 84.5756 88H85.8956C86.1623 88 86.2956 88.1333 86.2956 88.4V113.96C86.2956 114.067 86.349 114.12 86.4556 114.12H95.8156C96.0823 114.12 96.2156 114.253 96.2156 114.52V115.6C96.2156 115.867 96.0823 116 95.8156 116H84.5756ZM105.484 116.32C103.538 116.32 101.951 115.707 100.724 114.48C99.5244 113.227 98.9244 111.6 98.9244 109.6V94.44C98.9244 92.4133 99.5244 90.7867 100.724 89.56C101.924 88.3067 103.511 87.68 105.484 87.68C107.458 87.68 109.058 88.3067 110.284 89.56C111.511 90.7867 112.124 92.4133 112.124 94.44V109.6C112.124 111.6 111.511 113.227 110.284 114.48C109.058 115.707 107.458 116.32 105.484 116.32ZM105.484 114.44C106.818 114.44 107.898 114 108.724 113.12C109.578 112.24 110.004 111.093 110.004 109.68V94.36C110.004 92.9467 109.578 91.8 108.724 90.92C107.898 90.0133 106.818 89.56 105.484 89.56C104.178 89.56 103.111 90.0133 102.284 90.92C101.458 91.8 101.044 92.9467 101.044 94.36V109.68C101.044 111.093 101.458 112.24 102.284 113.12C103.111 114 104.178 114.44 105.484 114.44ZM123.451 116.32C121.505 116.32 119.931 115.733 118.731 114.56C117.558 113.36 116.971 111.787 116.971 109.84V94.16C116.971 92.2133 117.558 90.6533 118.731 89.48C119.931 88.28 121.505 87.68 123.451 87.68C125.398 87.68 126.971 88.28 128.171 89.48C129.371 90.6533 129.971 92.2133 129.971 94.16V95.92C129.971 96.1867 129.838 96.32 129.571 96.32H128.251C127.985 96.32 127.851 96.1867 127.851 95.92V94.12C127.851 92.7333 127.451 91.6267 126.651 90.8C125.851 89.9733 124.785 89.56 123.451 89.56C122.118 89.56 121.051 89.9733 120.251 90.8C119.451 91.6267 119.051 92.7333 119.051 94.12V109.88C119.051 111.267 119.451 112.373 120.251 113.2C121.051 114.027 122.118 114.44 123.451 114.44C124.785 114.44 125.851 114.027 126.651 113.2C127.451 112.373 127.851 111.267 127.851 109.88V104.24C127.851 104.133 127.798 104.08 127.691 104.08H123.931C123.665 104.08 123.531 103.947 123.531 103.68V102.6C123.531 102.333 123.665 102.2 123.931 102.2H129.571C129.838 102.2 129.971 102.333 129.971 102.6V109.84C129.971 111.787 129.371 113.36 128.171 114.56C126.971 115.733 125.398 116.32 123.451 116.32ZM141.342 116.32C139.395 116.32 137.822 115.733 136.622 114.56C135.449 113.36 134.862 111.787 134.862 109.84V94.16C134.862 92.2133 135.449 90.6533 136.622 89.48C137.822 88.28 139.395 87.68 141.342 87.68C143.289 87.68 144.862 88.28 146.062 89.48C147.262 90.6533 147.862 92.2133 147.862 94.16V95.92C147.862 96.1867 147.729 96.32 147.462 96.32H146.142C145.875 96.32 145.742 96.1867 145.742 95.92V94.12C145.742 92.7333 145.342 91.6267 144.542 90.8C143.742 89.9733 142.675 89.56 141.342 89.56C140.009 89.56 138.942 89.9733 138.142 90.8C137.342 91.6267 136.942 92.7333 136.942 94.12V109.88C136.942 111.267 137.342 112.373 138.142 113.2C138.942 114.027 140.009 114.44 141.342 114.44C142.675 114.44 143.742 114.027 144.542 113.2C145.342 112.373 145.742 111.267 145.742 109.88V104.24C145.742 104.133 145.689 104.08 145.582 104.08H141.822C141.555 104.08 141.422 103.947 141.422 103.68V102.6C141.422 102.333 141.555 102.2 141.822 102.2H147.462C147.729 102.2 147.862 102.333 147.862 102.6V109.84C147.862 111.787 147.262 113.36 146.062 114.56C144.862 115.733 143.289 116.32 141.342 116.32ZM165.633 89.48C165.633 89.7467 165.499 89.88 165.233 89.88H155.753C155.646 89.88 155.592 89.9333 155.592 90.04V100.88C155.592 100.987 155.646 101.04 155.753 101.04H161.833C162.099 101.04 162.233 101.173 162.233 101.44V102.52C162.233 102.787 162.099 102.92 161.833 102.92H155.753C155.646 102.92 155.592 102.973 155.592 103.08V113.96C155.592 114.067 155.646 114.12 155.753 114.12H165.233C165.499 114.12 165.633 114.253 165.633 114.52V115.6C165.633 115.867 165.499 116 165.233 116H153.873C153.606 116 153.473 115.867 153.473 115.6V88.4C153.473 88.1333 153.606 88 153.873 88H165.233C165.499 88 165.633 88.1333 165.633 88.4V89.48ZM181.823 116C181.583 116 181.423 115.893 181.343 115.68L176.943 103C176.916 102.92 176.863 102.88 176.783 102.88H172.823C172.716 102.88 172.663 102.933 172.663 103.04V115.6C172.663 115.867 172.529 116 172.263 116H170.943C170.676 116 170.543 115.867 170.543 115.6V88.4C170.543 88.1333 170.676 88 170.943 88H177.143C179.009 88 180.516 88.6933 181.663 90.08C182.809 91.4667 183.383 93.28 183.383 95.52C183.383 97.3067 182.996 98.8267 182.223 100.08C181.449 101.333 180.396 102.187 179.063 102.64C178.956 102.667 178.916 102.733 178.943 102.84L183.463 115.56L183.503 115.72C183.503 115.907 183.383 116 183.143 116H181.823ZM172.823 89.88C172.716 89.88 172.663 89.9333 172.663 90.04V100.96C172.663 101.067 172.716 101.12 172.823 101.12H176.903C178.209 101.12 179.263 100.613 180.063 99.6C180.863 98.56 181.263 97.2 181.263 95.52C181.263 93.8133 180.863 92.4533 180.063 91.44C179.263 90.4 178.209 89.88 176.903 89.88H172.823Z" fill="#E5D524"/>
<defs>
<linearGradient id="paint0_linear_2009_98" x1="60.5" y1="4.79999" x2="124.5" y2="59.2" gradientUnits="userSpaceOnUse">
<stop stop-color="#403B07"/>
<stop offset="1" stop-color="#121102"/>
</linearGradient>
<clipPath id="clip0_2009_98">
<rect width="64" height="64" fill="white" transform="translate(60.5)"/>
</clipPath>
</defs>
</svg>
